<?xml version="1.0" encoding="UTF-8"?><svg xmlns="http://www.w3.org/2000/svg" viewBox="0 0 121.79 61.94"><defs><style>.d{fill:#2fac66;}.e{fill:#1d1d1b;}</style></defs><g id="a"/><g id="b"><g id="c"><g><g><ellipse class="d" cx="119" cy="2.78" rx="3.58" ry="1.63" transform="translate(32.89 84.96) rotate(-45)"/><polygon class="d" points="92.25 27.41 119.54 2.25 94.37 29.53 92.25 27.41 92.25 27.41"/><ellipse class="d" cx="107.89" cy="6.89" rx="2.2" ry="4.84"/><ellipse class="d" cx="114.83" cy="14.07" rx="4.84" ry="2.2"/><ellipse class="d" cx="110.27" cy="19.2" rx="4.84" ry="2.2"/></g><g><path class="d" d="M0,3.36H1.78v15.27H11.19v1.54H0V3.36Z"/><path class="d" d="M11.51,11.76c0-4.9,3.74-8.54,8.83-8.54s8.81,3.62,8.81,8.54-3.77,8.54-8.81,8.54-8.83-3.65-8.83-8.54Zm15.87,0c0-4.01-3-6.96-7.03-6.96s-7.08,2.95-7.08,6.96,3.02,6.96,7.08,6.96,7.03-2.95,7.03-6.96Z"/><path class="d" d="M36.54,12.27l-3.43,3.48v4.42h-1.78V3.36h1.78V13.52L42.98,3.36h2.04l-7.27,7.61,7.78,9.19h-2.11l-6.87-7.9Z"/><path class="d" d="M60.49,15.68h-9.36l-2.02,4.49h-1.85L54.94,3.36h1.75l7.68,16.8h-1.87l-2.02-4.49Zm-.65-1.44l-4.03-9.02-4.03,9.02h8.06Z"/><path class="d" d="M79.11,15.68h-9.36l-2.02,4.49h-1.85l7.68-16.8h1.75l7.68,16.8h-1.87l-2.02-4.49Zm-.65-1.44l-4.03-9.02-4.03,9.02h8.06Z"/><path class="d" d="M86.98,3.36h1.78v15.27h9.41v1.54h-11.18V3.36Z"/></g><path class="e" d="M0,47.91c0-13.4,7.83-24.3,19.32-24.3,8.2,0,13.39,5.19,13.39,14.03,0,13.39-7.84,24.3-19.32,24.3-8.21,0-13.39-5.19-13.39-14.03Zm24.09-10.06c0-4.82-2.12-6.99-5.56-6.99-6.51,0-9.9,9.95-9.9,16.83,0,4.82,2.12,6.99,5.56,6.99,6.51,0,9.9-9.95,9.9-16.84Z"/><path class="e" d="M49.02,31.12l-2.01,7.04h2.22c9.26,0,13.87,3.81,13.87,10.17,0,8.31-7.1,13.61-17.15,13.61-5.51,0-10.38-1.54-13.61-4.29l4.13-6.3c2.44,2.12,6.09,3.39,10.01,3.39,5.08,0,7.94-1.96,7.94-5.4,0-2.65-2.01-4.23-7.2-4.23h-10.06l6.04-20.86h22.66l-1.43,6.88h-15.41Z"/><path class="e" d="M67.39,47.91c0-13.4,7.83-24.3,19.32-24.3,8.2,0,13.39,5.19,13.39,14.03,0,13.39-7.84,24.3-19.32,24.3-8.21,0-13.39-5.19-13.39-14.03Zm24.09-10.06c0-4.82-2.12-6.99-5.56-6.99-6.51,0-9.9,9.95-9.9,16.83,0,4.82,2.12,6.99,5.56,6.99,6.51,0,9.9-9.95,9.9-16.84Z"/><path class="d" d="M66.54,58.72l-3.46-3.46,25.52-23.82c.51,.21,1.34,.92,1.82,1.67-.52,.57-23.88,25.61-23.88,25.61Z"/></g></g></g></svg>